<svg width="152" height="152" viewBox="0 0 152 152" fill="none" xmlns="http://www.w3.org/2000/svg">
<path d="M58.6001 25.7711L70.6557 71.1166L26.6063 59.3691L37.2709 47.8565L2.26315 1.33617L47.9355 36.8138L58.6001 25.7711Z" stroke="black"/>
<path d="M58.6001 25.7711L70.6557 71.1166L26.6063 59.3691L37.2709 47.8565L2.26315 1.33617L47.9355 36.8138L58.6001 25.7711Z" stroke="black"/>
<path d="M93.6078 126.565L81.5522 81.2195L125.602 92.9671L114.937 104.48L149.945 151L104.272 115.522L93.6078 126.565Z" stroke="black"/>
<path d="M93.6078 126.565L81.5522 81.2195L125.602 92.9671L114.937 104.48L149.945 151L104.272 115.522L93.6078 126.565Z" stroke="black"/>
<path d="M25.1113 93.1008L69.8563 80.8834L58.2643 125.524L46.9042 114.716L1.00001 150.194L36.0077 103.909L25.1113 93.1008Z" stroke="black"/>
<path d="M25.1113 93.1008L69.8563 80.8834L58.2643 125.524L46.9042 114.716L1.00001 150.194L36.0077 103.909L25.1113 93.1008Z" stroke="black"/>
<path d="M126.889 58.0931L82.1437 70.3105L93.7357 25.6698L105.096 36.4776L151 0.999989L115.992 47.2853L126.889 58.0931Z" stroke="black"/>
<path d="M126.889 58.0931L82.1437 70.3105L93.7357 25.6698L105.096 36.4776L151 0.999989L115.992 47.2853L126.889 58.0931Z" stroke="black"/>
</svg>
